<svg width="40" height="40" viewBox="0 0 40 40" fill="none" xmlns="http://www.w3.org/2000/svg">
<g clip-path="url(#clip0_308_175)">
<path d="M0 2.86427C0 1.28177 1.315 -0.000732422 2.9375 -0.000732422H37.0625C38.685 -0.000732422 40 1.28177 40 2.86427V37.1343C40 38.7168 38.685 39.9993 37.0625 39.9993H2.9375C1.315 39.9993 0 38.7168 0 37.1343V2.86427ZM12.3575 33.4843V15.4218H6.355V33.4843H12.3575ZM9.3575 12.9543C11.45 12.9543 12.7525 11.5693 12.7525 9.83427C12.715 8.06177 11.4525 6.71427 9.3975 6.71427C7.3425 6.71427 6 8.06427 6 9.83427C6 11.5693 7.3025 12.9543 9.3175 12.9543H9.3575ZM21.6275 33.4843V23.3968C21.6275 22.8568 21.6675 22.3168 21.8275 21.9318C22.26 20.8543 23.2475 19.7368 24.9075 19.7368C27.08 19.7368 27.9475 21.3918 27.9475 23.8218V33.4843H33.95V23.1243C33.95 17.5743 30.99 14.9943 27.04 14.9943C23.855 14.9943 22.4275 16.7443 21.6275 17.9768V18.0393H21.5875C21.6008 18.0184 21.6141 17.9976 21.6275 17.9768V15.4218H15.6275C15.7025 17.1168 15.6275 33.4843 15.6275 33.4843H21.6275Z" fill="#E7E7E7"/>
</g>
<defs>
<clipPath id="clip0_308_175">
<rect width="40" height="40" fill="white" transform="translate(0 -0.000732422)"/>
</clipPath>
</defs>
</svg>
